ffmpeg version 4.2.7-0ubuntu0.1 Copyright (c) 2000-2022 the FFmpeg developers
  built with gcc 9 (Ubuntu 9.4.0-1ubuntu1~20.04.1)
  configuration: --prefix=/usr --extra-version=0ubuntu0.1 --toolchain=hardened --libdir=/usr/lib/x86_64-linux-gnu --incdir=/usr/include/x86_64-linux-gnu --arch=amd64 --enable-gpl --disable-stripping --enable-avresample --disable-filter=resample --enable-avisynth --enable-gnutls --enable-ladspa --enable-libaom --enable-libass --enable-libbluray --enable-libbs2b --enable-libcaca --enable-libcdio --enable-libcodec2 --enable-libflite --enable-libfontconfig --enable-libfreetype --enable-libfribidi --enable-libgme --enable-libgsm --enable-libjack --enable-libmp3lame --enable-libmysofa --enable-libopenjpeg --enable-libopenmpt --enable-libopus --enable-libpulse --enable-librsvg --enable-librubberband --enable-libshine --enable-libsnappy --enable-libsoxr --enable-libspeex --enable-libssh --enable-libtheora --enable-libtwolame --enable-libvidstab --enable-libvorbis --enable-libvpx --enable-libwavpack --enable-libwebp --enable-libx265 --enable-libxml2 --enable-libxvid --enable-libzmq --enable-libzvbi --enable-lv2 --enable-omx --enable-openal --enable-opencl --enable-opengl --enable-sdl2 --enable-libdc1394 --enable-libdrm --enable-libiec61883 --enable-nvenc --enable-chromaprint --enable-frei0r --enable-libx264 --enable-shared
  libavutil      56. 31.100 / 56. 31.100
  libavcodec     58. 54.100 / 58. 54.100
  libavformat    58. 29.100 / 58. 29.100
  libavdevice    58.  8.100 / 58.  8.100
  libavfilter     7. 57.100 /  7. 57.100
  libavresample   4.  0.  0 /  4.  0.  0
  libswscale      5.  5.100 /  5.  5.100
  libswresample   3.  5.100 /  3.  5.100
  libpostproc    55.  5.100 / 55.  5.100
Routing option strict to both codec and muxer layer
[h264 @ 0x564c752db500] Reinit context to 1520x864, pix_fmt: yuv420p
Input #0, mov,mp4,m4a,3gp,3g2,mj2, from '/var/www/html/project/media/video/original/-3811062966627141617.mp4':
  Metadata:
    major_brand     : mp42
    minor_version   : 0
    compatible_brands: isommp42
    creation_time   : 2025-09-23T14:18:51.000000Z
    com.android.version: 15
    com.android.manufacturer: motorola
    com.android.model: motorola edge 40
  Duration: 00:00:07.47, start: 0.000000, bitrate: 3219 kb/s
    Stream #0:0(eng): Audio: aac (LC) (mp4a / 0x6134706D), 48000 Hz, stereo, fltp, 253 kb/s (default)
    Metadata:
      creation_time   : 2025-09-23T14:18:51.000000Z
      handler_name    : SoundHandle
    Stream #0:1(eng): Video: h264 (High), 1 reference frame (avc1 / 0x31637661), yuv420p(tv, bt470bg/bt470bg/bt709, left), 1518x854 (1520x864), 2967 kb/s, 29.81 fps, 29.92 tbr, 90k tbn, 180k tbc (default)
    Metadata:
      creation_time   : 2025-09-23T14:18:51.000000Z
      handler_name    : VideoHandle
Input #1, png_pipe, from '/var/www/html/project/static/images/templates/logo.png':
  Duration: N/A, bitrate: N/A
    Stream #1:0: Video: png, 1 reference frame, rgba(pc), 1920x1080 [SAR 2835:2835 DAR 16:9], 25 tbr, 25 tbn, 25 tbc
[Parsed_scale_0 @ 0x564c752fb800] w:1280 h:720 flags:'bilinear' interl:0
[Parsed_scale_2 @ 0x564c752dfd80] w:1280 h:720 flags:'bilinear' interl:0
Stream mapping:
  Stream #0:1 (h264) -> scale (graph 0)
  Stream #1:0 (png) -> scale (graph 0)
  overlay (graph 0) -> Stream #0:0 (libx264)
  Stream #0:0 -> #0:1 (aac (native) -> aac (native))
Press [q] to stop, [?] for help
[graph_1_in_0_0 @ 0x564c756bf400] tb:1/48000 samplefmt:fltp samplerate:48000 chlayout:0x3
[h264 @ 0x564c753041c0] Reinit context to 1520x864, pix_fmt: yuv420p
[Parsed_scale_0 @ 0x564c75334440] w:1280 h:720 flags:'bilinear' interl:0
[Parsed_scale_2 @ 0x564c75331f00] w:1280 h:720 flags:'bilinear' interl:0
[graph 0 input from stream 0:1 @ 0x564c75f0da00] w:1518 h:854 pixfmt:yuv420p tb:1/90000 fr:359/12 sar:0/1 sws_param:flags=2
[graph 0 input from stream 1:0 @ 0x564c75f0ea80] w:1920 h:1080 pixfmt:rgba tb:1/25 fr:25/1 sar:2835/2835 sws_param:flags=2
[Parsed_scale_0 @ 0x564c75334440] w:1518 h:854 fmt:yuv420p sar:0/1 -> w:1280 h:720 fmt:yuv420p sar:0/1 flags:0x2
[Parsed_setsar_1 @ 0x564c7532eb80] w:1280 h:720 sar:0/1 dar:16/9 -> sar:1/1 dar:16/9
[Parsed_scale_2 @ 0x564c75331f00] w:1920 h:1080 fmt:rgba sar:2835/2835 -> w:1280 h:720 fmt:yuva420p sar:1/1 flags:0x2
[Parsed_setsar_3 @ 0x564c75f0c080] w:1280 h:720 sar:1/1 dar:16/9 -> sar:1/1 dar:16/9
[Parsed_overlay_4 @ 0x564c75f0cc80] main w:1280 h:720 fmt:yuv420p overlay w:1280 h:720 fmt:yuva420p
[Parsed_overlay_4 @ 0x564c75f0cc80] [framesync @ 0x564c75f0cde8] Selected 1/90000 time base
[Parsed_overlay_4 @ 0x564c75f0cc80] [framesync @ 0x564c75f0cde8] Sync level 2
[libx264 @ 0x564c7531df40] using SAR=1/1
[libx264 @ 0x564c7531df40] using cpu capabilities: MMX2 SSE2Fast SSSE3 SSE4.2 AVX FMA3 BMI2 AVX2
[libx264 @ 0x564c7531df40] profile High, level 3.1
[libx264 @ 0x564c7531df40] 264 - core 155 r2917 0a84d98 - H.264/MPEG-4 AVC codec - Copyleft 2003-2018 - http://www.videolan.org/x264.html - options: cabac=1 ref=1 deblock=1:0:0 analyse=0x3:0x113 me=hex subme=2 psy=1 psy_rd=1.00:0.00 mixed_ref=0 me_range=16 chroma_me=1 trellis=0 8x8dct=1 cqm=0 deadzone=21,11 fast_pskip=1 chroma_qp_offset=0 threads=22 lookahead_threads=5 sliced_threads=0 nr=0 decimate=1 interlaced=0 bluray_compat=0 constrained_intra=0 bframes=3 b_pyramid=2 b_adapt=1 b_bias=0 direct=1 weightb=1 open_gop=0 weightp=1 keyint=250 keyint_min=25 scenecut=40 intra_refresh=0 rc_lookahead=10 rc=crf mbtree=1 crf=18.0 qcomp=0.60 qpmin=0 qpmax=69 qpstep=4 ip_ratio=1.40 aq=1:1.00
Output #0, mp4, to '/var/www/html/project/media/video/watermarks/-3811062966627141617.mp4':
  Metadata:
    major_brand     : mp42
    minor_version   : 0
    compatible_brands: isommp42
    com.android.model: motorola edge 40
    com.android.version: 15
    com.android.manufacturer: motorola
    encoder         : Lavf58.29.100
    Stream #0:0: Video: h264 (libx264), 1 reference frame (avc1 / 0x31637661), yuv420p, 1280x720 [SAR 1:1 DAR 16:9], q=-1--1, 29.92 fps, 11488 tbn, 29.92 tbc (default)
    Metadata:
      encoder         : Lavc58.54.100 libx264
    Side data:
      cpb: bitrate max/min/avg: 0/0/0 buffer size: 0 vbv_delay: -1
    Stream #0:1(eng): Audio: aac (LC) (mp4a / 0x6134706D), 48000 Hz, stereo, fltp, delay 1024, 128 kb/s (default)
    Metadata:
      creation_time   : 2025-09-23T14:18:51.000000Z
      handler_name    : SoundHandle
      encoder         : Lavc58.54.100 aac
[Parsed_overlay_4 @ 0x564c75f0cc80] [framesync @ 0x564c75f0cde8] Sync level 0
No more output streams to write to, finishing.
frame=  222 fps=125 q=-1.0 Lsize=    6417kB time=00:00:07.47 bitrate=7036.1kbits/s speed=4.22x    
[AVIOContext @ 0x564c752d7b40] Statistics: 0 seeks, 4 writeouts
video:6291kB audio:117kB subtitle:0kB other streams:0kB global headers:0kB muxing overhead: 0.143186%
Input file #0 (/var/www/html/project/media/video/original/-3811062966627141617.mp4):
  Input stream #0:0 (audio): 346 packets read (236246 bytes); 346 frames decoded (354304 samples); 
  Input stream #0:1 (video): 222 packets read (2762666 bytes); 222 frames decoded; 
  Total: 568 packets (2998912 bytes) demuxed
Input file #1 (/var/www/html/project/static/images/templates/logo.png):
  Input stream #1:0 (video): 1 packets read (111578 bytes); 1 frames decoded; 
  Total: 1 packets (111578 bytes) demuxed
Output file #0 (/var/www/html/project/media/video/watermarks/-3811062966627141617.mp4):
  Output stream #0:0 (video): 222 frames encoded; 222 packets muxed (6441927 bytes); 
  Output stream #0:1 (audio): 346 frames encoded (354304 samples); 347 packets muxed (119471 bytes); 
  Total: 569 packets (6561398 bytes) muxed
[AVIOContext @ 0x564c7531d880] Statistics: 2 seeks, 29 writeouts
[libx264 @ 0x564c7531df40] frame I:2     Avg QP:17.51  size:115041
[libx264 @ 0x564c7531df40] frame P:74    Avg QP:20.14  size: 51050
[libx264 @ 0x564c7531df40] frame B:146   Avg QP:22.51  size: 16668
[libx264 @ 0x564c7531df40] consecutive B-frames:  9.0%  7.2%  8.1% 75.7%
[libx264 @ 0x564c7531df40] mb I  I16..4:  7.5% 16.3% 76.2%
[libx264 @ 0x564c7531df40] mb P  I16..4:  5.8% 12.6%  8.3%  P16..4: 29.5% 21.0% 18.1%  0.0%  0.0%    skip: 4.6%
[libx264 @ 0x564c7531df40] mb B  I16..4:  1.5%  1.5%  0.3%  B16..8: 29.3% 19.1%  4.5%  direct:12.6%  skip:31.2%  L0:37.0% L1:39.0% BI:24.0%
[libx264 @ 0x564c7531df40] 8x8 transform intra:44.6% inter:23.1%
[libx264 @ 0x564c7531df40] coded y,uvDC,uvAC intra: 65.4% 60.3% 24.3% inter: 27.9% 18.8% 2.1%
[libx264 @ 0x564c7531df40] i16 v,h,dc,p: 39% 28% 23% 10%
[libx264 @ 0x564c7531df40] i8 v,h,dc,ddl,ddr,vr,hd,vl,hu: 29% 23% 21%  4%  4%  4%  5%  5%  5%
[libx264 @ 0x564c7531df40] i4 v,h,dc,ddl,ddr,vr,hd,vl,hu: 29% 21% 12%  5%  6%  6%  7%  6%  6%
[libx264 @ 0x564c7531df40] i8c dc,h,v,p: 49% 21% 24%  5%
[libx264 @ 0x564c7531df40] Weighted P-Frames: Y:13.5% UV:1.4%
[libx264 @ 0x564c7531df40] kb/s:6913.02
[aac @ 0x564c7531c140] Qavg: 673.117
[AVIOContext @ 0x564c752e0ac0] Statistics: 3131597 bytes read, 6 seeks
[AVIOContext @ 0x564c75313940] Statistics: 111578 bytes read, 0 seeks
